<svg width="920" height="620" viewBox="0 0 920 620" fill="none" xmlns="http://www.w3.org/2000/svg">
  <rect width="920" height="620" rx="36" fill="#E8EEF1"/>
  <rect x="132" y="170" width="468" height="246" rx="18" fill="#0F4C5C"/>
  <rect x="164" y="202" width="404" height="182" rx="12" fill="#DCE8EB"/>
  <g stroke="#0A3742" stroke-width="6">
    <line x1="298" y1="170" x2="298" y2="416"/>
    <line x1="430" y1="170" x2="430" y2="416"/>
    <line x1="132" y1="252" x2="600" y2="252"/>
    <line x1="132" y1="334" x2="600" y2="334"/>
  </g>
  <rect x="220" y="436" width="296" height="34" rx="17" fill="#102129"/>
  <rect x="208" y="470" width="320" height="26" rx="13" fill="#5C7280"/>
  <path d="M635 196H738C761.196 196 780 214.804 780 238V238C780 261.196 761.196 280 738 280H635" stroke="#BF6B2C" stroke-width="10" stroke-linecap="round"/>
  <path d="M635 354H774" stroke="#0F4C5C" stroke-width="10" stroke-linecap="round"/>
  <path d="M635 398H716" stroke="#0F4C5C" stroke-width="10" stroke-linecap="round"/>
  <circle cx="366" cy="294" r="20" fill="#BF6B2C"/>
  <circle cx="780" cy="354" r="12" fill="#BF6B2C"/>
  <circle cx="730" cy="398" r="12" fill="#BF6B2C"/>
  <text x="640" y="186" fill="#102129" font-family="Arial, Helvetica, sans-serif" font-size="24" font-weight="700">Panel Assembly</text>
  <text x="640" y="346" fill="#102129" font-family="Arial, Helvetica, sans-serif" font-size="24" font-weight="700">Support Line</text>
  <text x="640" y="390" fill="#102129" font-family="Arial, Helvetica, sans-serif" font-size="24" font-weight="700">Access Point</text>
</svg>
