<svg width="920" height="700" viewBox="0 0 920 700" fill="none" xmlns="http://www.w3.org/2000/svg">
  <rect width="920" height="700" rx="36" fill="#E8EEF1"/>
  <rect x="92" y="96" width="736" height="508" rx="32" fill="#F8FBFC"/>
  <rect x="150" y="160" width="258" height="328" rx="28" fill="#102129"/>
  <rect x="184" y="194" width="190" height="260" rx="18" fill="#DCE8EB"/>
  <rect x="456" y="182" width="292" height="38" rx="19" fill="#0F4C5C"/>
  <rect x="456" y="252" width="236" height="20" rx="10" fill="#5C7280"/>
  <rect x="456" y="292" width="264" height="20" rx="10" fill="#5C7280"/>
  <rect x="456" y="332" width="208" height="20" rx="10" fill="#5C7280"/>
  <rect x="456" y="400" width="292" height="132" rx="24" fill="#DCE8EB"/>
  <path d="M505 442H694" stroke="#0F4C5C" stroke-width="10" stroke-linecap="round"/>
  <path d="M505 486H652" stroke="#0F4C5C" stroke-width="10" stroke-linecap="round"/>
  <path d="M505 530H612" stroke="#0F4C5C" stroke-width="10" stroke-linecap="round"/>
  <circle cx="150" cy="550" r="28" fill="#BF6B2C"/>
  <circle cx="224" cy="550" r="28" fill="#0F4C5C"/>
  <circle cx="298" cy="550" r="28" fill="#102129"/>
</svg>
