<svg width="960" height="780" viewBox="0 0 960 780" fill="none" xmlns="http://www.w3.org/2000/svg">
  <rect width="960" height="780" rx="40" fill="#E8EEF1"/>
  <rect x="54" y="70" width="852" height="640" rx="34" fill="url(#paint0_linear_0_1)"/>
  <rect x="162" y="222" width="522" height="270" rx="22" fill="#0F4C5C"/>
  <rect x="198" y="256" width="450" height="202" rx="18" fill="#DCE8EB"/>
  <g stroke="#0A3742" stroke-width="8">
    <line x1="310" y1="222" x2="310" y2="492"/>
    <line x1="422" y1="222" x2="422" y2="492"/>
    <line x1="534" y1="222" x2="534" y2="492"/>
    <line x1="162" y1="312" x2="684" y2="312"/>
    <line x1="162" y1="402" x2="684" y2="402"/>
  </g>
  <rect x="228" y="520" width="390" height="38" rx="19" fill="#102129"/>
  <path d="M748 278H812C843.48 278 869 303.52 869 335V335C869 366.48 843.48 392 812 392H748" stroke="#BF6B2C" stroke-width="12" stroke-linecap="round"/>
  <path d="M748 470H844" stroke="#0F4C5C" stroke-width="12" stroke-linecap="round"/>
  <circle cx="746" cy="470" r="18" fill="#BF6B2C"/>
  <text x="124" y="152" fill="#102129" font-family="Arial, Helvetica, sans-serif" font-size="42" font-weight="700">FRP Panel Type Water Tank</text>
  <text x="124" y="620" fill="#52616B" font-family="Arial, Helvetica, sans-serif" font-size="28">Modular water storage presentation for a clean corporate website build.</text>
  <defs>
    <linearGradient id="paint0_linear_0_1" x1="54" y1="70" x2="906" y2="710" gradientUnits="userSpaceOnUse">
      <stop stop-color="#F6FAFB"/>
      <stop offset="1" stop-color="#D9E6EA"/>
    </linearGradient>
  </defs>
</svg>
