<svg width="920" height="700" viewBox="0 0 920 700" fill="none" xmlns="http://www.w3.org/2000/svg">
  <rect width="920" height="700" rx="36" fill="#E8EEF1"/>
  <rect x="92" y="100" width="736" height="500" rx="34" fill="#F8FBFC"/>
  <rect x="152" y="212" width="426" height="232" rx="24" fill="#0F4C5C"/>
  <rect x="182" y="242" width="366" height="172" rx="18" fill="#DCE8EB"/>
  <g stroke="#0A3742" stroke-width="7">
    <line x1="274" y1="212" x2="274" y2="444"/>
    <line x1="365" y1="212" x2="365" y2="444"/>
    <line x1="456" y1="212" x2="456" y2="444"/>
    <line x1="152" y1="289" x2="578" y2="289"/>
    <line x1="152" y1="366" x2="578" y2="366"/>
  </g>
  <rect x="212" y="474" width="306" height="32" rx="16" fill="#102129"/>
  <rect x="622" y="190" width="126" height="126" rx="24" fill="#DCE8EB"/>
  <rect x="622" y="338" width="126" height="126" rx="24" fill="#DCE8EB"/>
  <rect x="622" y="486" width="126" height="44" rx="22" fill="#BF6B2C"/>
  <path d="M654 242H716" stroke="#0F4C5C" stroke-width="10" stroke-linecap="round"/>
  <path d="M654 290H700" stroke="#0F4C5C" stroke-width="10" stroke-linecap="round"/>
  <path d="M654 390H716" stroke="#0F4C5C" stroke-width="10" stroke-linecap="round"/>
  <path d="M654 438H700" stroke="#0F4C5C" stroke-width="10" stroke-linecap="round"/>
</svg>
